<?xml version="1.0" encoding="UTF-8"?>
<svg width="50px" height="50px" viewBox="0 0 50 50" version="1.1" xmlns="http://www.w3.org/2000/svg" xmlns:xlink="http://www.w3.org/1999/xlink">
    <!-- Generator: Sketch 41 (35326) - http://www.bohemiancoding.com/sketch -->
    <title>plugin-icon/commands</title>
    <desc>Created with Sketch.</desc>
    <defs></defs>
    <g id="Symbols" stroke="none" stroke-width="1" fill="none" fill-rule="evenodd">
        <g id="plugin-icon/commands">
            <g id="icon-bg/ok">
                <rect id="Rectangle-19" x="0" y="0" width="50" height="50" rx="4"></rect>
            </g>
            <g id="Group-3" transform="translate(9.000000, 11.000000)">
                <path d="M24.362365,17.859843 C24.3737462,18.4104458 24.830014,18.8567976 25.3766536,18.8567976 L30.535726,18.8567976 C31.0845209,18.8567976 31.5386248,18.410861 31.5500146,17.859843 L31.8971928,1.06395628 C31.908574,0.513353462 31.4691119,0.0670016852 30.9143189,0.0670016852 L24.9980607,0.0670016852 C24.4438532,0.0670016852 24.003797,0.512938324 24.0151868,1.06395628 L24.362365,17.859843 Z M24.1725312,25.1325992 C24.1725312,27.2330845 25.8814612,28.9134728 28.0176237,28.9134728 C30.1926256,28.9134728 31.9403949,27.2330845 31.9403949,25.1325992 C31.9403949,22.9939233 30.1926256,21.2753444 28.0176237,21.2753444 C25.8814612,21.2753444 24.1725312,22.9939233 24.1725312,25.1325992 Z" id="!" fill="#5ACFF5" transform="translate(27.977683, 14.490237) rotate(1.000000) translate(-27.977683, -14.490237) "></path>
                <rect id="Rectangle" fill="#40B0D4" x="10.56" y="0" width="9.24" height="3.89386189" rx="1"></rect>
                <rect id="Rectangle-Copy-3" fill="#5ACFF5" x="5.28" y="0" width="2.64" height="3.89386189" rx="1"></rect>
                <rect id="Rectangle-Copy-4" fill="#3CAACE" x="0" y="7.78772379" width="3.96" height="3.89386189" rx="1"></rect>
                <rect id="Rectangle-Copy" fill="#5ACFF5" x="6.6" y="7.78772379" width="13.2" height="3.89386189" rx="1"></rect>
                <rect id="Rectangle-Copy-2" fill="#5ACFF5" x="11.88" y="15.5754476" width="7.92" height="3.89386189" rx="1"></rect>
            </g>
        </g>
    </g>
</svg>