<?xml version="1.0" encoding="UTF-8"?>
<svg width="50px" height="50px" viewBox="0 0 50 50" version="1.1" xmlns="http://www.w3.org/2000/svg" xmlns:xlink="http://www.w3.org/1999/xlink">
    <!-- Generator: Sketch 41 (35326) - http://www.bohemiancoding.com/sketch -->
    <title>plugin-icon/levels</title>
    <desc>Created with Sketch.</desc>
    <defs>
        <path d="M15.4285714,23.1438797 L15.4285714,29.4054054 L19.7084157,29.4054054 C21.1318184,29.4054054 22.2857143,30.5699607 22.2857143,32 L2.57142857,32 C2.57142857,30.567045 3.71656418,29.4054054 5.14872714,29.4054054 L10.2857143,29.4054054 L10.2857143,23.1206392 C4.85069296,22.2115823 0,18.9268298 0,18.9268298 L0,0 L25.7142857,0 L25.7142857,18.9268298 C25.7142857,18.9268298 20.8914252,22.2691316 15.4285714,23.1438797 Z" id="path-1"></path>
        <circle id="path-3" cx="2.98123083" cy="2.98123083" r="2.98123083"></circle>
    </defs>
    <g id="Symbols" stroke="none" stroke-width="1" fill="none" fill-rule="evenodd">
        <g id="plugin-icon/levels">
            <g id="icon-bg/ok">
                <rect id="Rectangle-19" x="0" y="0" width="50" height="50" rx="4"></rect>
            </g>
            <g id="Group-4" transform="translate(7.000000, 9.000000)">
                <path d="M36,10.3279661 C36,13.1754937 33.6916849,15.483871 30.8571429,15.483871 C28.0168213,15.483871 25.7142857,13.165779 25.7142857,10.3279661 L25.7142857,5.15590483 C25.7142857,5.15590483 29.8440881,2.4062487 33.6796705,2.4062487 C34.9869452,2.4062487 35.2240333,2.95156937 35.6120166,3.45643235 C36,3.96129533 36,5.15590483 36,5.15590483 L36,10.3279661 Z M33.9428571,9.8089639 C33.9428571,11.7278242 32.5578681,13.2833678 30.8571429,13.2833678 C29.1529499,13.2833678 27.7714286,11.7212778 27.7714286,9.8089639 L27.7714286,6.3236726 C27.7714286,6.3236726 30.24931,4.47076483 32.5506594,4.47076483 C33.3350243,4.47076483 33.4772771,4.83823947 33.7100671,5.17845094 C33.9428571,5.5186624 33.9428571,6.3236726 33.9428571,6.3236726 L33.9428571,9.8089639 Z" id="Combined-Shape" fill="#FFCA36"></path>
                <path d="M10.2857143,9.98623357 C10.2857143,12.8337612 7.97739923,15.1421384 5.14285714,15.1421384 C2.30253557,15.1421384 1.01074704e-12,12.8240465 1.01074704e-12,9.98623357 L1.01074704e-12,4.81417226 C1.01074704e-12,4.81417226 4.12980238,2.06451613 7.96538476,2.06451613 C9.27265952,2.06451613 9.50974755,2.6098368 9.89773092,3.11469978 C10.2857143,3.61956276 10.2857143,4.81417226 10.2857143,4.81417226 L10.2857143,9.98623357 Z M8.22857143,9.46723133 C8.22857143,11.3860916 6.8435824,12.9416353 5.14285714,12.9416353 C3.4386642,12.9416353 2.05714286,11.3795452 2.05714286,9.46723133 L2.05714286,5.98194003 C2.05714286,5.98194003 4.53502428,4.12903226 6.83637371,4.12903226 C7.62073857,4.12903226 7.76299139,4.4965069 7.99578141,4.83671837 C8.22857143,5.17692983 8.22857143,5.98194003 8.22857143,5.98194003 L8.22857143,9.46723133 Z" id="Combined-Shape" fill="#D8AB2E" transform="translate(5.142857, 8.603327) scale(-1, 1) translate(-5.142857, -8.603327) "></path>
                <g id="Group-3" transform="translate(5.142857, 0.000000)">
                    <g id="Group-2"></g>
                    <g id="Group-2-Copy">
                        <mask id="mask-2" fill="white">
                            <use xlink:href="#path-1"></use>
                        </mask>
                        <use id="Combined-Shape" fill="#D8AB2E" xlink:href="#path-1"></use>
                        <path d="M17.4857143,23.1438797 L17.4857143,29.4054054 L21.7655586,29.4054054 C23.1889613,29.4054054 24.3428571,30.5699607 24.3428571,32 L4.62857143,32 C4.62857143,30.567045 5.77370704,29.4054054 7.20587,29.4054054 L12.3428571,29.4054054 L12.3428571,23.1206392 C6.90783582,22.2115823 2.05714286,18.9268298 2.05714286,18.9268298 L2.05714286,0 L27.7714286,0 L27.7714286,18.9268298 C27.7714286,18.9268298 22.948568,22.2691316 17.4857143,23.1438797 Z" id="Combined-Shape" fill="#FFCA36" mask="url(#mask-2)"></path>
                    </g>
                </g>
            </g>
            <g id="Combined-Shape" transform="translate(23.000000, 20.000000)">
                <mask id="mask-4" fill="white">
                    <use xlink:href="#path-3"></use>
                </mask>
                <g id="Mask"></g>
                <path d="M0.000427664355,3.07157116 C0.0099679455,2.87040794 0.177823272,2.71020985 0.372978681,2.71020985 L5.58948298,2.71020985 C5.7893489,2.71020985 5.95249738,2.8759043 5.96202217,3.07157116 L5.96246166,6.50450363 L0,6.50450363 L0,3.07157116 Z" fill="#000000" mask="url(#mask-4)"></path>
                <path d="M2.98123083,4.67912616 C3.16563702,4.57590492 3.37854176,4.51701641 3.60529231,4.51701641 C4.30839797,4.51701641 4.87837772,5.08322316 4.87837772,5.78167457 C4.87837772,6.48012599 4.30839797,7.04633274 3.60529231,7.04633274 C3.37854176,7.04633274 3.16563702,6.98744423 2.98123083,6.88422299 C2.79682464,6.98744423 2.5839199,7.04633274 2.35716935,7.04633274 C1.65406369,7.04633274 1.08408394,6.48012599 1.08408394,5.78167457 C1.08408394,5.08322316 1.65406369,4.51701641 2.35716935,4.51701641 C2.5839199,4.51701641 2.79682464,4.57590492 2.98123083,4.67912616 Z" fill="#F04747" mask="url(#mask-4)"></path>
            </g>
            <circle id="Oval-14-Copy" fill="#000000" cx="21.5" cy="17.5" r="1.5"></circle>
            <circle id="Oval-14-Copy-2" fill="#000000" cx="30.5" cy="17.5" r="1.5"></circle>
        </g>
    </g>
</svg>