<?xml version="1.0" encoding="UTF-8"?>
<svg width="50px" height="50px" viewBox="0 0 50 50" version="1.1" xmlns="http://www.w3.org/2000/svg" xmlns:xlink="http://www.w3.org/1999/xlink">
    <!-- Generator: Sketch 41 (35326) - http://www.bohemiancoding.com/sketch -->
    <title>plugin-icon/record</title>
    <desc>Created with Sketch.</desc>
    <defs>
        <rect id="path-1" x="23" y="33" width="5" height="5"></rect>
        <mask id="mask-2" maskContentUnits="userSpaceOnUse" maskUnits="objectBoundingBox" x="0" y="0" width="5" height="5" fill="white">
            <use xlink:href="#path-1"></use>
        </mask>
        <rect id="path-3" x="24" y="38" width="3" height="5"></rect>
        <mask id="mask-4" maskContentUnits="userSpaceOnUse" maskUnits="objectBoundingBox" x="-1" y="-1" width="5" height="7">
            <rect x="23" y="37" width="5" height="7" fill="white"></rect>
            <use xlink:href="#path-3" fill="black"></use>
        </mask>
    </defs>
    <g id="Symbols" stroke="none" stroke-width="1" fill="none" fill-rule="evenodd">
        <g id="plugin-icon/record">
            <g id="Group-2">
                <g id="icon-bg/ok">
                    <rect id="Rectangle-19" x="0" y="0" width="50" height="50" rx="4"></rect>
                </g>
            </g>
            <use id="Rectangle-5" stroke="#717171" mask="url(#mask-2)" stroke-width="2" fill="#717171" xlink:href="#path-1"></use>
            <g id="Rectangle-5-Copy">
                <use fill="#D8D8D8" fill-rule="evenodd" xlink:href="#path-3"></use>
                <use stroke="#979797" mask="url(#mask-4)" stroke-width="2" xlink:href="#path-3"></use>
            </g>
            <path d="M16,15.996098 C16,11.579975 19.5737547,8 24.002643,8 L26.997357,8 C31.4170947,8 35,11.5818905 35,15.996098 L35,25.003902 C35,29.420025 31.4262453,33 26.997357,33 L24.002643,33 C19.5829053,33 16,29.4181095 16,25.003902 L16,15.996098 Z" id="Rectangle-3" stroke="#979797" fill="#D8D8D8"></path>
            <rect id="Rectangle-4" fill="#717171" x="17" y="15" width="5" height="2"></rect>
            <rect id="Rectangle-4-Copy-9" fill="#717171" x="17" y="20" width="5" height="2"></rect>
            <rect id="Rectangle-4-Copy-6" fill="#717171" x="17" y="25" width="5" height="2"></rect>
            <rect id="Rectangle-4-Copy-2" fill="#717171" x="24" y="15" width="3" height="2"></rect>
            <rect id="Rectangle-4-Copy-10" fill="#717171" x="24" y="20" width="3" height="2"></rect>
            <rect id="Rectangle-4-Copy-7" fill="#717171" x="24" y="25" width="3" height="2"></rect>
            <rect id="Rectangle-4-Copy" fill="#717171" x="29" y="15" width="5" height="2"></rect>
            <rect id="Rectangle-4-Copy-11" fill="#717171" x="29" y="20" width="5" height="2"></rect>
            <rect id="Rectangle-4-Copy-8" fill="#717171" x="29" y="25" width="5" height="2"></rect>
        </g>
    </g>
</svg>