<?xml version="1.0" encoding="UTF-8"?>
<svg width="50px" height="50px" viewBox="0 0 50 50" version="1.1" xmlns="http://www.w3.org/2000/svg" xmlns:xlink="http://www.w3.org/1999/xlink">
    <!-- Generator: Sketch 52.2 (67145) - http://www.bohemiancoding.com/sketch -->
    <title>Artboard</title>
    <desc>Created with Sketch.</desc>
    <defs>
        <path d="M0.0249773387,1.5387866 C0.10505215,0.833402774 2.33807897,0 8.49249165,0 C15.6731358,0 16.7944824,1.3193403 16.7944824,1.3193403 C16.7944824,1.3193403 17.9881644,4.12043357 13.6425572,7.33841877 C9.13769938,10.6743313 4.27853482,8.07340972 3.29844972,7.33841877 C2.31836462,6.60342781 -0.281706883,4.24038634 0.0249773387,1.5387866 Z" id="path-1"></path>
    </defs>
    <g id="Artboard" stroke="none" stroke-width="1" fill="none" fill-rule="evenodd">
        <g id="Group-11" transform="translate(3.000000, 2.000000)">
            <g id="Group-8-Copy-2" transform="translate(5.000000, 5.000000)">
                <ellipse id="Oval-5" fill="#60D1F6" cx="20.0086264" cy="19.6987013" rx="19.920007" ry="19.6987013"></ellipse>
                <path d="M26.4213836,18.0443086 C26.4213836,18.0443086 26.6957918,15.3014515 29.0628931,15.3014515 C31.4299943,15.3014515 31.7044025,18.0443086 31.7044025,18.0443086" id="Path-2-Copy-10" stroke="#212121" stroke-width="2" stroke-linecap="round" stroke-linejoin="round"></path>
                <path d="M9.56603774,18.0443086 C9.56603774,18.0443086 9.84044592,15.3014515 12.2075472,15.3014515 C14.5746484,15.3014515 14.8490566,18.0443086 14.8490566,18.0443086" id="Path-2-Copy-11" stroke="#212121" stroke-width="2" stroke-linecap="round" stroke-linejoin="round"></path>
            </g>
            <g id="Group-17" transform="translate(17.000000, 30.000000)">
                <mask id="mask-2" fill="white">
                    <use xlink:href="#path-1"></use>
                </mask>
                <use id="Path-7" fill="#000000" xlink:href="#path-1"></use>
                <path d="M-0.986607143,-0.179368622 C-0.986607143,-1.2294317 -0.134508344,-2.08067602 0.919487312,-2.08067602 L16.0805127,-2.08067602 C17.1332196,-2.08067602 17.9866071,-1.23675255 17.9866071,-0.179368622 L17.9866071,-0.179368622 C17.9866071,0.870694458 17.1345083,1.72193878 16.0805127,1.72193878 L0.919487312,1.72193878 C-0.133219587,1.72193878 -0.986607143,0.878015305 -0.986607143,-0.179368622 L-0.986607143,-0.179368622 Z" id="Rectangle-9" fill="#FFFFFF" mask="url(#mask-2)"></path>
            </g>
            <path d="M2.97560976,1.09978944e-15 L18,0 C19.1045695,1.75920346e-15 20,0.8954305 20,2 L20,13.8139535 C20,14.918523 19.1045695,15.8139535 18,15.8139535 L1.70731707,15.8139535 L0,17 L0.975609756,12.6511628 L0.975609756,2 C0.975609756,0.8954305 1.87104026,1.97926296e-15 2.97560976,1.77635684e-15 Z" id="Rectangle" fill="#FFFFFF" transform="translate(10.000000, 8.500000) scale(-1, 1) translate(-10.000000, -8.500000) "></path>
            <path d="M5,8 C5,7.67058659 5.09642761,7.42156947 5.28928571,7.25294118 C5.48214382,7.08431288 5.7628553,7 6.13142857,7 C6.48714464,7 6.76249903,7.08627365 6.9575,7.25882353 C7.15250098,7.43137341 7.25,7.67842976 7.25,8 C7.25,8.30980547 7.15142956,8.55392068 6.95428571,8.73235294 C6.75714187,8.91078521 6.4828589,9 6.13142857,9 C5.77142677,9 5.49285813,8.91274597 5.29571429,8.73823529 C5.09857044,8.56372462 5,8.31764865 5,8 Z M8.375,8 C8.375,7.67058659 8.47115288,7.42156947 8.66346154,7.25294118 C8.85577019,7.08431288 9.13781865,7 9.50961538,7 C9.86431801,7 10.1388879,7.08627365 10.3333333,7.25882353 C10.5277787,7.43137341 10.625,7.67842976 10.625,8 C10.625,8.30980547 10.5267104,8.55392068 10.3301282,8.73235294 C10.133546,8.91078521 9.86004449,9 9.50961538,9 C9.14636571,9 8.86645397,8.91274597 8.66987179,8.73823529 C8.47328962,8.56372462 8.375,8.31764865 8.375,8 Z M11.75,8 C11.75,7.67058659 11.8464276,7.42156947 12.0392857,7.25294118 C12.2321438,7.08431288 12.5128553,7 12.8814286,7 C13.2371446,7 13.512499,7.08627365 13.7075,7.25882353 C13.902501,7.43137341 14,7.67842976 14,8 C14,8.30980547 13.9014296,8.55392068 13.7042857,8.73235294 C13.5071419,8.91078521 13.2328589,9 12.8814286,9 C12.5214268,9 12.2428581,8.91274597 12.0457143,8.73823529 C11.8485704,8.56372462 11.75,8.31764865 11.75,8 Z" id="…" fill="#232323"></path>
        </g>
    </g>
</svg>