<?xml version="1.0" encoding="UTF-8"?>
<svg width="50px" height="50px" viewBox="0 0 50 50" version="1.1" xmlns="http://www.w3.org/2000/svg" xmlns:xlink="http://www.w3.org/1999/xlink">
    <!-- Generator: Sketch 41 (35326) - http://www.bohemiancoding.com/sketch -->
    <title>plugin-icon/reddit</title>
    <desc>Created with Sketch.</desc>
    <defs></defs>
    <g id="Symbols" stroke="none" stroke-width="1" fill="none" fill-rule="evenodd">
        <g id="plugin-icon/reddit">
            <g id="icon-bg/ok">
                <rect id="Rectangle-19" x="0" y="0" width="50" height="50" rx="4"></rect>
            </g>
            <rect id="Rectangle-31" fill="#FF4500" x="14" y="23" width="19" height="8"></rect>
            <rect id="Rectangle-31" fill="#FF4500" transform="translate(24.000000, 34.000000) scale(1, -1) translate(-24.000000, -34.000000) " x="17" y="32" width="14" height="4"></rect>
            <path d="M32.1654844,12.6636046 C32.4441748,11.7025492 33.3309975,11 34.3819094,11 C35.6562768,11 36.6893557,12.0330789 36.6893557,13.3074463 C36.6893557,14.5818137 35.6562768,15.6148926 34.3819094,15.6148926 C33.1185111,15.6148926 32.0922654,14.5995216 32.0746922,13.3402996 L31.9339427,13.4997424 L26.7254524,12.3518469 L25.1684649,19.8418575 C25.1684649,19.8418575 27.7338725,19.8206646 30.0365407,20.5119835 C32.339209,21.2033024 34.2799783,22.5773629 34.2799783,22.5773629 C34.2799783,22.5773629 37.4397382,19.9111296 39.3713303,22.9302642 C41.3029224,25.9493988 38.1669468,28.0813746 38.1669468,28.0813746 L38.0941071,30.4092746 C38.0941071,30.4092746 35.2679235,38.655927 24.4353102,38.655927 C13.6026969,38.655927 11.0203037,30.5516838 11.0203037,30.5516838 L10.9700591,28.0477791 C10.9700591,28.0477791 7.87184129,25.5953083 9.44607248,23.0536459 C11.0203037,20.5119835 14.8430543,22.6011473 14.8430543,22.6011473 C14.8430543,22.6011473 16.9133662,21.2460111 19.2241442,20.5119835 C21.5349221,19.7779559 24.0583272,19.6738801 24.0583272,19.6738801 L25.8374017,11 L32.1654844,12.6636046 Z M15.9223389,27.1521241 C15.9223389,25.8777567 16.9465332,24.8446778 18.2297852,24.8446778 C19.5041526,24.8446778 20.5372315,25.8688721 20.5372315,27.1521241 C20.5372315,28.4264916 19.5130373,29.4595705 18.2297852,29.4595705 C16.9554178,29.4595705 15.9223389,28.4353762 15.9223389,27.1521241 Z M18.9481434,33.0623983 C18.9481434,33.0623983 20.9547869,34.7957299 24.2207417,34.7957299 C27.4866966,34.7957299 29.5726766,32.9305024 29.5726766,32.9305024 C29.5726766,32.9305024 29.8092567,32.8673264 30.041258,33.0623983 C30.2732593,33.2574702 30.2732593,33.6832072 30.2732593,33.6832072 C30.2732593,33.6832072 29.1182505,35.9027775 24.3926572,35.9027775 C19.6670638,35.9027775 18.2908645,33.9241078 18.2908645,33.9241078 C18.2908645,33.9241078 18.1534361,33.4649324 18.2908645,33.2574702 C18.4282928,33.050008 18.9481434,33.0623983 18.9481434,33.0623983 Z M27.4595705,27.1521241 C27.4595705,25.8777567 28.4837647,24.8446778 29.7670168,24.8446778 C31.0413842,24.8446778 32.0744631,25.8688721 32.0744631,27.1521241 C32.0744631,28.4264916 31.0502688,29.4595705 29.7670168,29.4595705 C28.4926494,29.4595705 27.4595705,28.4353762 27.4595705,27.1521241 Z" id="Combined-Shape" fill="#FFFFFF"></path>
        </g>
    </g>
</svg>