<?xml version="1.0" encoding="UTF-8"?>
<svg width="50px" height="50px" viewBox="0 0 50 50" version="1.1" xmlns="http://www.w3.org/2000/svg" xmlns:xlink="http://www.w3.org/1999/xlink">
    <!-- Generator: Sketch 41 (35326) - http://www.bohemiancoding.com/sketch -->
    <title>plugin-icon/search</title>
    <desc>Created with Sketch.</desc>
    <defs></defs>
    <g id="Symbols" stroke="none" stroke-width="1" fill="none" fill-rule="evenodd">
        <g id="plugin-icon/search">
            <g id="Group-2">
                <g id="icon-bg/ok">
                    <rect id="Rectangle-19" x="0" y="0" width="50" height="50" rx="4"></rect>
                </g>
                <g id="Group-4" transform="translate(6.000000, 9.000000)">
                    <rect id="Rectangle" fill="#000000" opacity="0.343523551" x="8" y="7" width="30" height="3" rx="1"></rect>
                    <rect id="Rectangle-Copy" fill="#000000" opacity="0.343523551" x="5" y="14" width="33" height="3" rx="1"></rect>
                    <rect id="Rectangle-Copy-2" fill="#000000" opacity="0.343523551" x="8" y="21" width="25" height="3" rx="1"></rect>
                    <rect id="Rectangle-2" fill="#000000" opacity="0.343523551" x="3" y="7" width="3" height="3" rx="1"></rect>
                    <rect id="Rectangle-2-Copy" fill="#000000" opacity="0.343523551" x="0" y="14" width="3" height="3" rx="1"></rect>
                    <rect id="Rectangle-2-Copy-2" fill="#000000" opacity="0.201086957" x="35" y="21" width="3" height="3" rx="1"></rect>
                    <g id="Group-3" transform="translate(4.000000, 2.000000)">
                        <circle id="Oval-3" fill="#FFFFFF" cx="17" cy="12" r="11"></circle>
                        <circle id="Oval-3-Copy" fill="#5ACFF5" cx="17" cy="12" r="8"></circle>
                        <path d="M17.9358222,1.42884956 C13.5175442,1.42884956 9.93582223,5.01057156 9.93582223,9.42884956 C9.93582223,13.8471276 13.5175442,17.4288496 17.9358222,17.4288496 L17.9358222,17.4288496" id="Oval-3-Copy-2" fill="#4FBFE4" transform="translate(13.935822, 9.428850) rotate(40.000000) translate(-13.935822, -9.428850) "></path>
                        <rect id="Rectangle-12" fill="#FFFFFF" transform="translate(6.253246, 24.466944) rotate(39.000000) translate(-6.253246, -24.466944) " x="4.59831834" y="17.3789271" width="3.3098554" height="14.1760338" rx="1.6549277"></rect>
                        <circle id="Oval-5" fill="#DFDFDF" cx="18" cy="6" r="1"></circle>
                        <circle id="Oval-5-Copy" fill="#DEDEDE" cx="15.5" cy="6.5" r="0.5"></circle>
                    </g>
                </g>
            </g>
        </g>
    </g>
</svg>