<?xml version="1.0" encoding="UTF-8"?>
<svg width="50px" height="50px" viewBox="0 0 50 50" version="1.1" xmlns="http://www.w3.org/2000/svg" xmlns:xlink="http://www.w3.org/1999/xlink">
    <!-- Generator: Sketch 41 (35326) - http://www.bohemiancoding.com/sketch -->
    <title>plugin-icon/music</title>
    <desc>Created with Sketch.</desc>
    <defs></defs>
    <g id="Symbols" stroke="none" stroke-width="1" fill="none" fill-rule="evenodd">
        <g id="plugin-icon/music">
            <g id="Group-2">
                <g id="icon-bg/ok">
                    <rect id="Rectangle-19" x="0" y="0" width="50" height="50" rx="4"></rect>
                </g>
            </g>
            <path d="M38.3385417,8 C38.7916689,8 39.181856,8.1517842 39.5091146,8.45535714 C39.8363732,8.75893009 40,9.13839058 40,9.59375 L40,32.5892857 C40,34.5625099 39.6979197,35.953865 39.09375,36.7633929 C38.4392328,37.8258982 37.3567784,38.3571429 35.8463542,38.3571429 L33.0520833,38.3571429 C31.9947864,38.3571429 31.0759588,38.0156284 30.2955729,37.3325893 C29.5151871,36.6495502 29.125,35.776791 29.125,34.7142857 C29.125,33.6517804 29.5151871,32.7790213 30.2955729,32.0959821 C31.0759588,31.412943 31.9947864,31.0714286 33.0520833,31.0714286 L37.5833333,31.0714286 L37.5833333,16.5 L21.875,19.3839286 L21.875,36.9910714 C21.875,38.1547677 21.5477463,39.1919597 20.8932292,40.1026786 C20.8428817,40.1532741 20.792535,40.2165175 20.7421875,40.2924107 C20.69184,40.368304 20.6666667,40.4315474 20.6666667,40.4821429 L20.515625,40.6339286 C19.7604129,41.5446474 18.8038252,42 17.6458333,42 L14.8515625,42 C13.7942655,42 12.8880246,41.6584856 12.1328125,40.9754464 C11.3776004,40.2924073 11,39.4196482 11,38.3571429 C11,37.2946375 11.3776004,36.4218784 12.1328125,35.7388393 C12.8880246,35.0558002 13.7942655,34.7142857 14.8515625,34.7142857 L19.4583333,34.7142857 L19.4583333,13.0089286 C19.5086808,12.5029737 19.7226544,12.009675 20.1002604,11.5290179 C20.4778665,11.0483607 20.9435736,10.7321436 21.4973958,10.5803571 L37.9609375,8.07589286 C38.1119799,8.02529737 38.2378467,8 38.3385417,8 Z" id="" fill="#5ACFF5"></path>
        </g>
    </g>
</svg>