<?xml version="1.0" encoding="UTF-8"?>
<svg width="50px" height="50px" viewBox="0 0 50 50" version="1.1" xmlns="http://www.w3.org/2000/svg" xmlns:xlink="http://www.w3.org/1999/xlink">
    <!-- Generator: Sketch 41 (35326) - http://www.bohemiancoding.com/sketch -->
    <title>plugin-icon/timer</title>
    <desc>Created with Sketch.</desc>
    <defs>
        <circle id="path-1" cx="10" cy="10" r="10"></circle>
    </defs>
    <g id="Symbols" stroke="none" stroke-width="1" fill="none" fill-rule="evenodd">
        <g id="plugin-icon/timer">
            <g id="Group-2">
                <g id="icon-bg/ok">
                    <rect id="Rectangle-19" x="0" y="0" width="50" height="50" rx="4"></rect>
                </g>
                <g id="Group-4" transform="translate(7.000000, 11.000000)">
                    <g id="Group-3" transform="translate(12.000000, 0.000000)">
                        <rect id="Rectangle" fill="#000000" x="10" y="1" width="4" height="5"></rect>
                        <rect id="Rectangle-2" fill="#000000" x="9" y="0" width="6" height="3" rx="1.5"></rect>
                        <rect id="Rectangle-2-Copy" fill="#000000" transform="translate(18.474874, 7.474874) rotate(-45.000000) translate(-18.474874, -7.474874) " x="15.9748737" y="6.47487373" width="5" height="2" rx="1"></rect>
                        <circle id="Oval" fill="#F5A123" cx="12" cy="16" r="12"></circle>
                        <g id="Oval-Copy-2" transform="translate(2.000000, 6.000000)">
                            <mask id="mask-2" fill="white">
                                <use xlink:href="#path-1"></use>
                            </mask>
                            <use id="Mask" fill="#83CBE2" xlink:href="#path-1"></use>
                            <circle fill="#9FDBEE" mask="url(#mask-2)" cx="11" cy="10" r="10"></circle>
                        </g>
                        <path d="M12,18 C13.1045695,18 14,17.1045695 14,16 C14,14.8954305 13.1045695,14 12,14 C11.8174423,14 11.6405975,14.0244594 11.4725638,14.0702799 C11.2691386,14.1257511 7.46620617,9.74317012 7.46620617,9.74317012 C7.46620617,9.74317012 10.5761295,14.5802595 10.4451308,14.7419669 C10.166763,15.0855895 10,15.52332 10,16 C10,17.1045695 10.8954305,18 12,18 Z" id="Oval-6" fill="#000000"></path>
                    </g>
                    <rect id="Rectangle-2" fill="#F5A023" x="2" y="6" width="11" height="3" rx="1.5"></rect>
                    <rect id="Rectangle-2-Copy-2" fill="#F5A023" x="4" y="13" width="6" height="3" rx="1.5"></rect>
                    <rect id="Rectangle-2-Copy-3" fill="#F5A023" x="0" y="21" width="12" height="3" rx="1.5"></rect>
                </g>
            </g>
        </g>
    </g>
</svg>