<?xml version="1.0" encoding="UTF-8"?>
<svg width="200px" height="200px" viewBox="0 0 200 200" version="1.1" xmlns="http://www.w3.org/2000/svg" xmlns:xlink="http://www.w3.org/1999/xlink">
    <!-- Generator: Sketch 52.2 (67145) - http://www.bohemiancoding.com/sketch -->
    <title>twitter-icon</title>
    <desc>Created with Sketch.</desc>
    <g id="twitter-icon" stroke="none" stroke-width="1" fill="none" fill-rule="evenodd">
        <path d="M75.1419888,154 C125.711411,154 153.36392,112.453157 153.36392,76.4265817 C153.36392,75.2465092 153.339683,74.0717612 153.286308,72.9023243 C158.654396,69.0538221 163.320325,64.2511633 167,58.7840503 C162.074112,60.9554794 156.773023,62.4172767 151.211966,63.0764152 C156.888263,59.7009936 161.245983,54.361463 163.301565,47.9960112 C157.989752,51.1189348 152.107095,53.3887063 145.843873,54.6139521 C140.826864,49.3142838 133.684594,46 125.775839,46 C110.593489,46 98.2814458,58.2099696 98.2814458,73.2611292 C98.2814458,75.4006605 98.5226458,77.4817296 98.9943347,79.4777363 C76.1444345,78.3375395 55.8834272,67.4883714 42.3251795,50.9913613 C39.964073,55.0205971 38.6026243,59.7009936 38.6026243,64.6950126 C38.6026243,74.1541524 43.4561483,82.5049843 50.8369388,87.3900344 C46.3264592,87.2518298 42.0893351,86.0239172 38.3855354,83.980066 C38.3814884,84.0944576 38.3814884,84.2059818 38.3814884,84.3282397 C38.3814884,97.5322238 47.8580654,108.55681 60.4381088,111.055146 C58.1279268,111.679733 55.6971403,112.014614 53.1886383,112.014614 C51.4198207,112.014614 49.696563,111.841965 48.0215499,111.522924 C51.5216606,122.356146 61.6709175,130.239199 73.704241,130.459804 C64.294664,137.774084 52.4409094,142.130235 39.5580261,142.130235 C37.3416396,142.130235 35.152062,142.005213 33,141.752821 C45.1673235,149.487048 59.6153444,154 75.1434097,154" id="path3611" fill="#1DA1F2"></path>
    </g>
</svg>