<?xml version="1.0" encoding="UTF-8"?>
<svg width="50px" height="50px" viewBox="0 0 50 50" version="1.1" xmlns="http://www.w3.org/2000/svg" xmlns:xlink="http://www.w3.org/1999/xlink">
    <!-- Generator: Sketch 41 (35326) - http://www.bohemiancoding.com/sketch -->
    <title>plugin-icon/welcome</title>
    <desc>Created with Sketch.</desc>
    <defs>
        <path d="M16,25 C24.836556,25 32,19.4035594 32,12.5 C32,5.59644063 24.836556,0 16,0 C7.163444,0 0,5.59644063 0,12.5 C0,15.5523968 1.40041811,18.3492583 3.72668204,20.5198249 C4.39640276,21.1447211 2.86848008,25.9384788 2.86848008,25.9384788 C2.86848008,25.9384788 7.89057678,23.3187445 8.96921463,23.7316339 C11.0913253,24.5439518 13.4774925,25 16,25 Z" id="path-1"></path>
        <path d="M0,0 C0,1.38071187 1.11928813,2.5 2.5,2.5 L2.5,2.5 C3.88071187,2.5 5,1.38071187 5,0" id="path-3"></path>
    </defs>
    <g id="Symbols" stroke="none" stroke-width="1" fill="none" fill-rule="evenodd">
        <g id="plugin-icon/welcome">
            <g id="icon-bg/ok">
                <rect id="Rectangle-19" x="0" y="0" width="50" height="50" rx="4"></rect>
            </g>
            <g id="Group-3" transform="translate(12.000000, 14.000000)">
                <mask id="mask-2" fill="white">
                    <use xlink:href="#path-1"></use>
                </mask>
                <use id="Oval-7" fill="#3CAACE" xlink:href="#path-1"></use>
                <path d="M18,25 C26.836556,25 34,19.4035594 34,12.5 C34,5.59644063 26.836556,0 18,0 C9.163444,0 2,5.59644063 2,12.5 C2,15.5523968 3.40041811,18.3492583 5.72668204,20.5198249 C6.39640276,21.1447211 4.86848008,25.9384788 4.86848008,25.9384788 C4.86848008,25.9384788 9.66275597,24.315671 10.7413938,24.7285603 C12.8635044,25.5408783 15.4774925,25 18,25 Z" id="Oval-7-Copy" fill="#5ACFF5" mask="url(#mask-2)"></path>
            </g>
            <circle id="Oval" fill="#000000" cx="36.5" cy="22.5" r="1.5"></circle>
            <circle id="Oval-Copy" fill="#000000" cx="29.5" cy="22.5" r="1.5"></circle>
            <g id="Group-2" transform="translate(30.000000, 27.000000)">
                <mask id="mask-4" fill="white">
                    <use xlink:href="#path-3"></use>
                </mask>
                <use id="Oval-2" fill="#000000" xlink:href="#path-3"></use>
                <path d="M2.5,2.8662178 C2.35291332,2.95130286 2.18214357,3 2,3 C1.44771525,3 1,2.55228475 1,2 C1,1.44771525 1.44771525,1 2,1 C2.18214357,1 2.35291332,1.04869714 2.5,1.1337822 C2.64708668,1.04869714 2.81785643,1 3,1 C3.55228475,1 4,1.44771525 4,2 C4,2.55228475 3.55228475,3 3,3 C2.81785643,3 2.64708668,2.95130286 2.5,2.8662178 Z" id="Combined-Shape" fill="#FF2700" mask="url(#mask-4)"></path>
            </g>
            <path d="M36.753,9.3 L36.753,12 L35.214,12 L35.214,9.3 L32.82,5.628 L34.683,5.628 L36.042,7.986 L37.401,5.628 L39.201,5.628 L36.753,9.3 Z M46.032,8.787 C46.032,9.29100252 45.9450009,9.75149791 45.771,10.1685 C45.5969991,10.5855021 45.3555015,10.9424985 45.0465,11.2395 C44.7374985,11.5365015 44.3700021,11.7659992 43.944,11.928 C43.5179979,12.0900008 43.0560025,12.171 42.558,12.171 C42.0599975,12.171 41.5995021,12.0900008 41.1765,11.928 C40.7534979,11.7659992 40.3875015,11.5365015 40.0785,11.2395 C39.7694985,10.9424985 39.5280009,10.5855021 39.354,10.1685 C39.1799991,9.75149791 39.093,9.29100252 39.093,8.787 C39.093,8.27699745 39.1799991,7.81650205 39.354,7.4055 C39.5280009,6.99449794 39.7694985,6.64500144 40.0785,6.357 C40.3875015,6.06899856 40.7534979,5.84700078 41.1765,5.691 C41.5995021,5.53499922 42.0599975,5.457 42.558,5.457 C43.0560025,5.457 43.5179979,5.53499922 43.944,5.691 C44.3700021,5.84700078 44.7374985,6.06899856 45.0465,6.357 C45.3555015,6.64500144 45.5969991,6.99449794 45.771,7.4055 C45.9450009,7.81650205 46.032,8.27699745 46.032,8.787 Z M44.385,8.787 C44.385,8.51099862 44.3400005,8.2530012 44.25,8.013 C44.1599996,7.7729988 44.0355008,7.56750085 43.8765,7.3965 C43.7174992,7.22549914 43.5255011,7.09050049 43.3005,6.9915 C43.0754989,6.8924995 42.8280014,6.843 42.558,6.843 C42.2879987,6.843 42.0420011,6.8924995 41.82,6.9915 C41.5979989,7.09050049 41.4060008,7.22549914 41.244,7.3965 C41.0819992,7.56750085 40.9575004,7.7729988 40.8705,8.013 C40.7834996,8.2530012 40.74,8.51099862 40.74,8.787 C40.74,9.07500144 40.7849996,9.34049878 40.875,9.5835 C40.9650005,9.82650122 41.0894992,10.0349991 41.2485,10.209 C41.4075008,10.3830009 41.5979989,10.5194995 41.82,10.6185 C42.0420011,10.7175005 42.2879987,10.767 42.558,10.767 C42.8280014,10.767 43.0739989,10.7175005 43.296,10.6185 C43.5180011,10.5194995 43.7099992,10.3830009 43.872,10.209 C44.0340008,10.0349991 44.1599996,9.82650122 44.25,9.5835 C44.3400005,9.34049878 44.385,9.07500144 44.385,8.787 Z" id="YO" fill="#5ACFF5"></path>
            <rect id="Rectangle-2" fill="#3CAACE" x="5" y="17" width="8" height="2" rx="1"></rect>
            <rect id="Rectangle-2-Copy" fill="#5ACFF5" x="6" y="22" width="4" height="2" rx="1"></rect>
            <rect id="Rectangle-2-Copy-2" fill="#3CAACE" x="3" y="27" width="7" height="2" rx="1"></rect>
            <rect id="Rectangle-2-Copy-3" fill="#5ACFF5" x="5" y="33" width="7" height="2" rx="1"></rect>
        </g>
    </g>
</svg>