<?xml version="1.0" encoding="UTF-8"?>
<svg width="50px" height="50px" viewBox="0 0 50 50" version="1.1" xmlns="http://www.w3.org/2000/svg" xmlns:xlink="http://www.w3.org/1999/xlink">
    <!-- Generator: Sketch 41 (35326) - http://www.bohemiancoding.com/sketch -->
    <title>plugin-icon/youtube</title>
    <desc>Created with Sketch.</desc>
    <defs></defs>
    <g id="Symbols" stroke="none" stroke-width="1" fill="none" fill-rule="evenodd">
        <g id="plugin-icon/youtube">
            <rect id="Rectangle-3" fill="#FFFFFF" x="18" y="17" width="17" height="15"></rect>
            <path d="M21.6966129,29.3919982 L30.3389878,24.9279616 L21.6966129,20.4103566 L21.6966129,29.3919982 Z M25,14 C26.9998984,14 28.9313189,14.026784 30.7943195,14.0803527 C32.6573201,14.1339214 34.0233016,14.1904653 34.8923051,14.249986 L36.1958038,14.3214106 C36.207708,14.3214106 36.3088918,14.3303386 36.4993583,14.3481949 C36.6898248,14.3660511 36.8267206,14.3839071 36.9100497,14.4017633 C36.9933788,14.4196195 37.1332505,14.4464035 37.3296691,14.482116 C37.5260877,14.5178284 37.6957194,14.5654443 37.8385693,14.6249651 C37.9814191,14.6844859 38.1480748,14.7618618 38.3385414,14.857095 C38.5290079,14.9523283 38.7135195,15.0683921 38.8920819,15.2052899 C39.0706443,15.3421877 39.2432519,15.4999154 39.4099101,15.6784778 C39.4813351,15.7499027 39.5735909,15.8600145 39.6866804,16.0088165 C39.7997699,16.1576184 39.9723776,16.5058098 40.2045087,17.053401 C40.4366397,17.6009923 40.5943674,18.2021432 40.6776965,18.8568718 C40.7729298,19.6187379 40.8473297,20.4311844 40.9008984,21.2942358 C40.9544671,22.1572872 40.987203,22.832838 40.9991072,23.3209084 L40.9991072,26.4635902 C41.0110113,28.189693 40.9038755,29.9157699 40.6776965,31.6418726 C40.5943674,32.2966013 40.4455677,32.8888242 40.2312929,33.4185592 C40.0170181,33.9482942 39.8265544,34.3143415 39.6598962,34.5167122 L39.4099101,34.8202667 C39.2432519,34.9988291 39.0706443,35.1565568 38.8920819,35.2934546 C38.7135195,35.4303524 38.5290079,35.5434402 38.3385414,35.6327214 C38.1480748,35.7220025 37.9814191,35.7964024 37.8385693,35.8559232 C37.6957194,35.915444 37.5260877,35.9630599 37.3296691,35.9987724 C37.1332505,36.0344848 36.9904028,36.0612688 36.9011216,36.079125 C36.8118404,36.0969813 36.6749446,36.1148372 36.4904302,36.1326935 C36.3059158,36.1505497 36.207708,36.1594777 36.1958038,36.1594777 C33.2078604,36.3856567 29.4759631,36.4987445 25,36.4987445 C22.5358395,36.4749362 20.3960993,36.4362482 18.5807154,36.3826795 C16.7653314,36.3291108 15.5719576,36.2844709 15.000558,36.2487584 L14.1256068,36.1773338 L13.4827856,36.1059092 C13.0542359,36.0463885 12.7298525,35.9868686 12.5096256,35.9273478 C12.2893987,35.867827 11.9858472,35.7428352 11.5989621,35.5523687 C11.212077,35.3619022 10.8757896,35.1178706 10.5900899,34.8202667 C10.5186649,34.7488418 10.4264091,34.63873 10.3133196,34.489928 C10.2002301,34.341126 10.0276224,33.9929347 9.79549134,33.4453434 C9.56336027,32.8977522 9.40563256,32.2966013 9.32230346,31.6418726 C9.2270702,30.8800066 9.15267034,30.0675601 9.09910163,29.2045087 C9.04553292,28.3414573 9.01279698,27.6659065 9.00089282,27.177836 L9.00089282,24.0351543 C8.98898867,22.3090515 9.09612447,20.5829746 9.32230346,18.8568718 C9.40563256,18.2021432 9.55443229,17.6099202 9.76870712,17.0801853 C9.98298195,16.5504503 10.1734456,16.1844029 10.3401038,15.9820323 L10.5900899,15.6784778 C10.7567481,15.4999154 10.9293557,15.3421877 11.1079181,15.2052899 C11.2864805,15.0683921 11.4709921,14.9523283 11.6614586,14.857095 C11.8519252,14.7618618 12.0185809,14.6844859 12.1614307,14.6249651 C12.3042806,14.5654443 12.4739123,14.5178284 12.6703309,14.482116 C12.8667495,14.4464035 13.0066212,14.4196195 13.0899503,14.4017633 C13.1732794,14.3839071 13.3101752,14.3660511 13.5006417,14.3481949 C13.6911082,14.3303386 13.792292,14.3214106 13.8041962,14.3214106 C16.7921396,14.1071358 20.5240369,14 25,14 Z" id="youtube-play---FontAwesome" fill="#FF0000"></path>
        </g>
    </g>
</svg>